Coordinates
version=1
nRows=14
nColumns=40
inDegrees=yes

Units are S.I. units (second, meters, Newtons, ...)
If the header above contains a line with 'inDegrees', this indicates whether rotational values are in degrees (yes) or radians (no).

endheader
time	pelvis_tilt	pelvis_list	pelvis_rotation	pelvis_tx	pelvis_ty	pelvis_tz	hip_flexion_r	hip_adduction_r	hip_rotation_r	knee_angle_r	knee_angle_r_beta	ankle_angle_r	subtalar_angle_r	mtp_angle_r	hip_flexion_l	hip_adduction_l	hip_rotation_l	knee_angle_l	knee_angle_l_beta	ankle_angle_l	subtalar_angle_l	mtp_angle_l	lumbar_extension	lumbar_bending	lumbar_rotation	arm_flex_r	arm_add_r	arm_rot_r	elbow_flex_r	pro_sup_r	wrist_flex_r	wrist_dev_r	arm_flex_l	arm_add_l	arm_rot_l	elbow_flex_l	pro_sup_l	wrist_flex_l	wrist_dev_l
      4.52500000	    -29.58201634	     -1.98821396	     -3.05177743	     -0.38485852	      0.74205927	     -0.91533557	     75.68777712	    -10.13052787	      1.42692593	     83.32184155	      1.45424047	     35.79837828	      0.00000000	      0.00000000	     77.73205203	    -17.99957874	      8.87576013	     83.30552181	      1.45395564	     35.18722383	      0.00000000	      0.00000000	    -13.41662500	      2.99835729	      3.66976729	     12.60005583	    -52.29879478	     79.92074100	     89.07418975	     86.67781294	      0.00000000	      0.00000000	     -7.80271216	    -46.79279323	     48.84495306	     91.33230341	     87.64373031	      0.00000000	      0.00000000
      4.53000000	    -29.54030780	     -2.04742544	     -3.06380288	     -0.38286934	      0.74568446	     -0.91509901	     75.12778899	     -9.95177937	      1.40780099	     82.66179453	      1.44272048	     35.65622512	      0.00000000	      0.00000000	     77.19227069	    -17.99521398	      8.84469454	     82.68489786	      1.44312371	     35.03415306	      0.00000000	      0.00000000	    -12.87118379	      3.06261988	      3.57133829	     12.57830798	    -52.20251816	     79.91338808	     89.06171316	     86.67537832	      0.00000000	      0.00000000	     -7.81242476	    -46.82293074	     48.94271858	     91.31325737	     87.64255417	      0.00000000	      0.00000000
      4.53500000	    -29.47076978	     -1.90099489	     -3.20291746	     -0.38119076	      0.74952883	     -0.91536372	     74.62614256	     -9.83425976	      1.53959888	     81.92003047	      1.42977426	     35.44521735	      0.00000000	      0.00000000	     76.52599414	    -17.89328791	      8.71716193	     82.07731038	      1.43251931	     34.85304578	      0.00000000	      0.00000000	    -12.36529646	      2.94131279	      3.54367598	     12.60584901	    -52.19816493	     79.89921548	     89.02361710	     86.66940258	      0.00000000	      0.00000000	     -7.79499642	    -46.77751047	     49.01819102	     91.29756647	     87.63941259	      0.00000000	      0.00000000
      4.54000000	    -29.04586083	     -1.77219918	     -3.23125517	     -0.37877700	      0.75430450	     -0.91533753	     73.64537892	     -9.69459365	      1.79550502	     81.19728823	      1.41716002	     35.28977341	      0.00000000	      0.00000000	     75.38336145	    -17.87805063	      8.31371484	     81.29851907	      1.41892683	     34.70192305	      0.00000000	      0.00000000	    -12.21829785	      2.79188439	      3.45607967	     12.73088945	    -51.94462984	     79.90859358	     88.64445432	     86.63829882	      0.00000000	      0.00000000	     -7.48640706	    -46.72760377	     49.27270210	     90.96107883	     87.62541298	      0.00000000	      0.00000000
      4.54500000	    -29.03057818	     -1.78334940	     -3.18801731	     -0.37646863	      0.75842210	     -0.91521750	     73.04129642	     -9.59573885	      1.79512267	     80.44316177	      1.40399803	     35.10737080	      0.00000000	      0.00000000	     74.78014156	    -17.79320412	      8.22987170	     80.54417499	      1.40576105	     34.48843260	      0.00000000	      0.00000000	    -11.57203583	      2.81399301	      3.31293363	     12.61955197	    -51.84886233	     79.92138079	     88.65072612	     86.63854974	      0.00000000	      0.00000000	     -7.56902474	    -46.76890377	     49.39351494	     90.99015314	     87.62801241	      0.00000000	      0.00000000
      4.55000000	    -28.84072194	     -1.74330962	     -3.18019558	     -0.37447663	      0.76315227	     -0.91528416	     72.26976888	     -9.49193044	      1.86666944	     79.56041673	      1.38859123	     34.86934222	      0.00000000	      0.00000000	     73.94376053	    -17.67105886	      8.13717283	     79.69914534	      1.39101250	     34.21191325	      0.00000000	      0.00000000	    -11.12410846	      2.78393335	      3.16729248	     12.69830705	    -51.74382404	     79.81464980	     88.62108223	     86.62670986	      0.00000000	      0.00000000	     -7.53859217	    -46.80606451	     49.47067078	     91.01482157	     87.62528192	      0.00000000	      0.00000000
      4.55500000	    -28.58898114	     -1.69051837	     -3.09921404	     -0.37211994	      0.76819921	     -0.91536056	     71.36827989	     -9.46830504	      1.93413275	     78.67477385	      1.37313384	     34.63732171	      0.00000000	      0.00000000	     73.00978772	    -17.52068022	      7.95188352	     78.82944756	      1.37583341	     33.93218610	      0.00000000	      0.00000000	    -10.75134315	      2.72788295	      2.96490246	     12.70274928	    -51.61085097	     79.72968705	     88.51690604	     86.61469574	      0.00000000	      0.00000000	     -7.52890563	    -46.83153446	     49.57211222	     90.98127989	     87.61786268	      0.00000000	      0.00000000
      4.56000000	    -28.00905088	     -1.57500039	     -3.02292475	     -0.36908037	      0.77396696	     -0.91554433	     70.08614239	     -9.54068365	      1.94742622	     77.78485505	      1.35760183	     34.51126331	      0.00000000	      0.00000000	     71.58906649	    -17.35932112	      7.62383541	     77.89655702	      1.35955140	     33.72405053	      0.00000000	      0.00000000	    -10.67642599	      2.58277042	      2.77805635	     12.69961871	    -51.35223283	     79.58474155	     88.09574449	     86.59168115	      0.00000000	      0.00000000	     -7.37786434	    -46.81099342	     49.76521233	     90.80441457	     87.59601216	      0.00000000	      0.00000000
      4.56500000	    -27.89378272	     -1.54812270	     -2.94347587	     -0.36661046	      0.77917941	     -0.91577320	     69.27204423	     -9.53369589	      1.92531464	     76.78221950	      1.34010254	     34.23464226	      0.00000000	      0.00000000	     70.76288508	    -17.22168977	      7.41896980	     76.92205583	      1.34254314	     33.42071897	      0.00000000	      0.00000000	    -10.07874373	      2.58340761	      2.57162244	     12.63218805	    -51.31334117	     79.50378053	     88.24599074	     86.58359711	      0.00000000	      0.00000000	     -7.51985140	    -46.86111734	     49.90092305	     90.90637251	     87.59939456	      0.00000000	      0.00000000
      4.57000000	    -27.31803903	     -1.50816096	     -2.82874502	     -0.36376643	      0.78551079	     -0.91578884	     67.90971362	     -9.57714133	      1.85990138	     75.72324963	      1.32162003	     33.99075974	      0.00000000	      0.00000000	     69.32893701	    -17.07802861	      7.15985740	     75.80526755	      1.32305151	     33.07203088	      0.00000000	      0.00000000	    -10.01761175	      2.50952487	      2.35065400	     12.65191182	    -51.15654995	     79.23641727	     88.07818730	     86.55209121	      0.00000000	      0.00000000	     -7.41148564	    -46.93419255	     49.99947285	     90.86464142	     87.58174977	      0.00000000	      0.00000000
      4.57500000	    -26.94358916	     -1.40319663	     -2.64894597	     -0.36112736	      0.79176661	     -0.91611348	     66.75500046	     -9.73550956	      1.79795185	     74.59331808	      1.30189900	     33.67606755	      0.00000000	      0.00000000	     68.11311275	    -16.80480808	      6.90108460	     74.62088806	      1.30238019	     32.67259253	      0.00000000	      0.00000000	     -9.72144564	      2.40549141	      2.07188115	     12.59932511	    -51.13105162	     78.97871916	     88.25846800	     86.52287806	      0.00000000	      0.00000000	     -7.42522183	    -46.98741241	     50.05467058	     90.94857757	     87.56935651	      0.00000000	      0.00000000
      4.58000000	    -26.55437360	     -1.42770398	     -2.60518255	     -0.35814466	      0.79823496	     -0.91614083	     65.50892422	     -9.68468460	      1.65418763	     73.37901399	      1.28070540	     33.29559592	      0.00000000	      0.00000000	     66.85449876	    -16.79000670	      6.61408359	     73.42566113	      1.28151954	     32.27004378	      0.00000000	      0.00000000	     -9.40554725	      2.42515977	      1.90678940	     12.47089574	    -51.10119991	     78.71032250	     88.36814669	     86.49101398	      0.00000000	      0.00000000	     -7.54250969	    -47.04750760	     50.11759963	     91.03671459	     87.55517296	      0.00000000	      0.00000000
      4.58500000	    -26.09593793	     -1.29379661	     -2.49463442	     -0.35511189	      0.80511047	     -0.91623723	     64.19243625	     -9.79948879	      1.59346626	     72.10991887	      1.25855551	     32.91926750	      0.00000000	      0.00000000	     65.43498383	    -16.62562214	      6.18105190	     72.10038540	      1.25838912	     31.77812754	      0.00000000	      0.00000000	     -9.13710957	      2.25958905	      1.68329541	     12.33075565	    -51.08279471	     78.39256140	     88.60421879	     86.46148869	      0.00000000	      0.00000000	     -7.65032200	    -47.16169040	     50.10940253	     91.15325162	     87.54181438	      0.00000000	      0.00000000
      4.59000000	    -25.84963273	     -1.30016917	     -2.25055085	     -0.35154538	      0.81192470	     -0.91636602	     62.95797508	     -9.95248786	      1.29450345	     70.75763036	      1.23495362	     32.55436588	      0.00000000	      0.00000000	     64.24583362	    -16.46213793	      5.86856915	     70.70233770	      1.23398858	     31.32875232	      0.00000000	      0.00000000	     -8.55674202	      2.27127665	      1.32337178	     12.04915762	    -51.06056916	     78.03090142	     88.74960365	     86.39594487	      0.00000000	      0.00000000	     -7.91985764	    -47.25964090	     50.11040416	     91.24729248	     87.52998732	      0.00000000	      0.00000000
